<?xml version="1.0" standalone="no"?>
<!DOCTYPE svg PUBLIC "-//W3C//DTD SVG 20010904//EN"
 "http://www.w3.org/TR/2001/REC-SVG-20010904/DTD/svg10.dtd">
<svg version="1.0" xmlns="http://www.w3.org/2000/svg"
 width="1024.000000pt" height="1024.000000pt" viewBox="0 0 1024.000000 1024.000000"
 preserveAspectRatio="xMidYMid meet">
<metadata>
Created by potrace 1.11, written by Peter Selinger 2001-2013
</metadata>
<g transform="translate(0.000000,1024.000000) scale(0.100000,-0.100000)"
fill="#000000" stroke="none">
<path d="M5065 8900 c-3 -5 -21 -8 -40 -6 -19 1 -35 -1 -35 -4 0 -4 -18 -6
-40 -4 -23 1 -40 -2 -40 -8 0 -6 -6 -5 -15 2 -8 7 -15 8 -15 3 0 -6 -11 -9
-25 -8 -14 2 -25 -1 -25 -7 0 -6 -6 -5 -15 2 -8 7 -15 8 -15 3 0 -6 -11 -9
-25 -8 -14 2 -25 -1 -25 -5 0 -5 -9 -7 -20 -5 -11 2 -22 0 -25 -5 -3 -4 -15
-6 -27 -2 -11 3 -19 1 -16 -4 4 -5 -4 -9 -15 -10 -32 -2 -66 -9 -73 -16 -3 -4
-12 -4 -20 -1 -8 3 -14 0 -14 -7 0 -6 -4 -9 -9 -6 -15 10 -72 -15 -64 -27 4
-7 0 -6 -9 1 -14 11 -21 11 -41 -2 -13 -9 -27 -13 -30 -9 -4 3 -7 1 -7 -4 0
-6 -8 -10 -17 -9 -10 2 -21 -1 -24 -6 -3 -5 -15 -10 -27 -13 -12 -2 -38 -12
-59 -22 -21 -10 -40 -18 -43 -18 -10 0 -245 -118 -250 -125 -3 -4 -15 -10 -27
-14 -13 -4 -23 -11 -23 -16 0 -8 -38 -23 -52 -21 -5 1 -8 -3 -8 -8 0 -5 -29
-26 -65 -47 -36 -21 -65 -42 -65 -46 0 -4 -6 -8 -13 -8 -7 0 -23 -10 -37 -23
-14 -12 -38 -30 -53 -40 -34 -22 -60 -43 -98 -79 -15 -14 -30 -24 -33 -21 -2
3 -11 -4 -18 -16 -7 -12 -16 -21 -21 -21 -4 0 -25 -17 -45 -38 -21 -21 -46
-41 -56 -45 -11 -4 -16 -13 -12 -23 3 -8 2 -12 -4 -9 -12 7 -162 -139 -153
-149 4 -4 0 -4 -10 0 -10 4 -17 1 -17 -6 0 -7 -19 -30 -41 -51 -23 -22 -39
-39 -35 -39 3 0 -19 -25 -49 -55 -29 -30 -51 -55 -48 -55 3 0 -4 -8 -15 -19
-12 -10 -19 -21 -15 -25 3 -3 1 -6 -5 -6 -6 0 -41 -39 -79 -87 -37 -49 -71
-89 -75 -91 -5 -2 -8 -10 -8 -17 0 -7 -4 -15 -8 -17 -5 -1 -28 -32 -53 -68
-24 -36 -51 -70 -59 -77 -8 -7 -11 -13 -7 -13 4 0 3 -6 -2 -12 -46 -56 -61
-77 -61 -86 0 -6 -7 -15 -16 -20 -9 -5 -16 -13 -16 -18 0 -5 -19 -38 -43 -74
-24 -36 -45 -72 -47 -80 -2 -8 -11 -21 -20 -28 -10 -7 -18 -22 -18 -32 0 -10
-4 -20 -9 -22 -5 -1 -11 -10 -13 -18 -2 -8 -11 -23 -20 -34 -10 -11 -18 -26
-18 -33 0 -7 -4 -13 -10 -13 -5 0 -10 -9 -10 -20 0 -11 -4 -20 -8 -20 -8 0
-42 -63 -42 -75 1 -3 -6 -13 -15 -21 -8 -9 -13 -19 -10 -24 3 -4 -1 -10 -9
-13 -8 -3 -13 -12 -12 -19 5 -30 18 -58 27 -58 5 0 9 -7 9 -15 0 -8 5 -15 12
-15 6 0 8 -3 5 -7 -4 -3 1 -12 11 -20 11 -10 12 -12 2 -8 -12 5 -12 4 1 -7 9
-7 19 -24 24 -37 5 -18 9 -21 16 -10 6 10 9 7 10 -11 1 -14 1 -29 0 -33 -1 -5
3 -5 9 -2 10 6 29 40 80 144 12 25 28 51 36 59 8 7 12 18 9 23 -4 5 1 9 10 9
11 0 15 5 11 15 -3 8 -1 15 5 15 6 0 7 5 4 10 -3 6 0 13 9 16 8 3 19 19 25 35
5 16 16 29 23 29 9 0 9 3 -2 10 -13 8 -12 10 3 10 11 0 22 -12 28 -30 6 -16
16 -30 22 -30 6 0 8 -3 4 -6 -9 -9 21 -64 36 -64 8 0 8 -3 -2 -9 -11 -7 -11
-10 2 -17 9 -5 16 -13 16 -19 2 -24 13 -45 21 -40 9 5 8 -3 -5 -47 -4 -16 -11
-25 -16 -22 -5 3 -9 -1 -9 -8 0 -8 -6 -20 -12 -26 -7 -7 -13 -16 -13 -20 -1
-4 -6 -17 -13 -28 -6 -12 -8 -25 -4 -29 4 -5 2 -5 -4 -2 -6 4 -23 -17 -40 -51
-16 -31 -32 -58 -36 -60 -5 -2 -8 -10 -8 -18 0 -8 -5 -14 -11 -14 -5 0 -8 -4
-4 -9 3 -6 -1 -13 -9 -18 -12 -7 -12 -13 1 -45 12 -30 17 -35 28 -25 7 7 11
15 9 19 -2 3 2 13 10 21 8 8 12 17 9 21 -4 3 -1 6 5 6 7 0 12 4 12 10 0 5 13
32 30 60 16 27 27 50 24 50 -2 0 4 10 15 22 11 11 18 25 15 30 -3 4 0 8 6 8 5
0 18 17 28 38 9 20 25 46 35 56 9 11 17 26 17 33 0 7 5 13 11 13 6 0 9 7 5 15
-3 9 0 15 9 15 8 0 15 5 15 11 0 6 6 17 13 24 22 25 32 41 35 53 1 7 11 21 22
32 11 11 20 25 20 31 0 5 5 7 12 3 6 -4 8 -3 5 3 -4 5 3 20 14 31 11 12 16 22
12 22 -4 1 1 8 12 18 11 9 26 29 34 44 8 16 17 26 20 23 2 -3 13 12 22 32 10
21 18 34 19 30 0 -5 19 15 42 45 23 29 45 55 50 56 4 2 8 8 8 13 0 6 11 20 25
33 13 13 22 26 18 29 -3 4 1 7 10 7 10 0 17 3 17 8 0 15 58 72 74 72 10 0 14
-4 11 -10 -3 -5 -3 -16 2 -22 4 -7 9 -19 10 -25 4 -19 9 -36 15 -53 3 -8 13
-36 23 -62 10 -29 28 -56 46 -69 l29 -20 31 21 c17 13 35 34 41 49 20 47 19
144 -2 202 -11 28 -17 56 -14 60 3 5 0 9 -5 9 -6 0 -10 3 -9 8 1 4 -4 25 -10
46 -12 42 -3 66 25 66 8 0 12 3 9 8 -2 4 12 21 31 37 20 17 56 49 81 72 25 23
50 39 54 37 4 -3 8 2 8 11 0 9 5 13 10 10 6 -3 10 -1 10 5 0 6 5 8 12 4 7 -5
8 -3 4 5 -5 8 0 14 13 18 12 3 21 9 21 14 0 4 18 18 40 30 22 13 40 27 40 31
0 5 4 7 9 4 5 -3 11 1 15 9 3 8 11 15 17 15 7 0 18 8 26 18 10 11 12 12 8 2
-5 -12 -4 -12 7 1 7 8 21 18 31 22 9 3 17 11 17 16 0 6 7 7 17 4 11 -4 14 -3
9 5 -4 7 -1 12 8 12 8 0 22 7 30 16 9 8 16 13 16 9 0 -4 7 1 16 9 8 9 25 16
36 16 12 0 18 3 15 7 -8 7 38 33 59 33 8 0 14 4 14 9 0 8 39 22 51 18 3 -1 13
6 23 16 10 9 26 17 37 17 10 0 19 5 19 11 0 6 7 9 15 5 8 -3 15 -1 15 4 0 6 9
10 20 10 11 0 20 5 20 11 0 5 4 8 9 4 5 -3 13 0 16 6 4 5 13 8 21 5 8 -3 17 1
20 9 3 7 12 11 20 8 8 -3 20 0 28 6 7 6 16 8 19 4 4 -3 13 0 21 6 8 7 21 9 27
5 7 -4 9 -3 5 4 -4 6 1 11 11 11 37 1 62 8 79 22 16 12 17 12 9 -1 -7 -12 -6
-13 6 -5 8 6 28 12 44 14 17 2 33 8 37 15 6 8 8 7 8 -2 0 -10 5 -10 20 -2 11
6 24 9 28 6 5 -3 20 1 35 9 15 7 29 10 32 5 3 -5 19 -5 37 0 17 5 34 7 39 5 4
-3 10 1 12 7 4 10 6 10 6 1 1 -7 7 -10 14 -8 6 3 27 7 45 9 37 4 34 14 38
-134 4 -143 4 -141 14 -135 4 3 6 -3 3 -13 -6 -24 46 -78 75 -78 11 0 18 4 16
8 -3 4 3 8 13 8 24 0 66 93 50 109 -7 7 -7 11 -1 11 5 0 10 31 10 70 0 43 -3
67 -9 63 -6 -4 -7 -1 -1 8 8 13 10 21 13 69 1 17 5 18 26 10 17 -6 25 -6 25 1
0 6 5 7 12 3 21 -13 59 -14 51 -1 -4 7 1 6 11 -2 21 -18 56 -22 56 -7 0 8 2 8
8 0 4 -6 27 -14 52 -18 25 -4 59 -10 75 -13 17 -4 38 -6 48 -7 9 0 17 -5 17
-10 0 -5 3 -6 7 -3 3 4 12 2 20 -4 7 -6 13 -9 13 -6 0 2 37 -7 83 -21 45 -14
94 -25 108 -26 19 -1 25 -5 21 -15 -4 -10 -1 -13 11 -8 9 3 19 2 23 -4 3 -6
12 -8 20 -5 8 3 14 -1 14 -9 0 -8 8 -12 20 -10 11 2 20 -1 20 -6 0 -6 4 -8 9
-4 5 3 16 -2 24 -10 9 -8 22 -15 31 -15 8 0 21 -7 30 -15 8 -9 17 -15 18 -14
8 5 48 -13 48 -22 0 -5 3 -8 8 -8 12 3 72 -25 72 -33 0 -4 7 -8 15 -8 8 0 15
-5 15 -11 0 -6 7 -9 15 -5 9 3 15 0 15 -10 0 -8 4 -13 9 -10 5 3 14 -1 21 -9
7 -8 16 -13 20 -10 4 3 10 -2 14 -10 3 -8 12 -15 21 -15 8 0 15 -4 15 -10 0
-5 9 -10 21 -10 11 0 17 -4 14 -10 -3 -5 -1 -10 5 -10 7 0 30 -14 51 -31 21
-17 39 -27 39 -22 0 4 8 -4 18 -20 10 -15 21 -24 25 -21 4 4 10 -1 13 -10 5
-14 9 -15 15 -4 7 10 9 9 9 -4 0 -10 4 -18 8 -18 8 0 75 -56 129 -107 13 -12
23 -20 23 -17 0 3 7 -1 15 -10 8 -8 15 -20 15 -26 0 -6 4 -9 8 -6 5 3 14 -4
22 -14 8 -10 17 -17 22 -14 13 8 9 -31 -4 -44 -7 -7 -9 -12 -6 -12 3 0 -6 -35
-21 -77 -18 -54 -26 -95 -24 -133 3 -76 5 -90 15 -90 5 0 7 -4 4 -8 -8 -13 23
-52 40 -52 8 0 14 -5 14 -11 0 -8 6 -7 17 2 14 12 16 12 9 -1 -4 -8 -1 -7 7 3
9 10 18 18 21 18 3 -1 6 1 6 4 -1 3 6 13 15 21 8 9 13 19 10 24 -3 5 -1 11 5
15 6 4 8 11 5 16 -4 5 -2 9 3 9 5 0 12 12 15 28 10 54 16 74 27 88 7 7 8 19 4
26 -6 10 -3 9 9 -1 9 -7 17 -17 17 -21 0 -5 15 -24 33 -42 54 -58 122 -139
129 -156 4 -10 7 -12 7 -7 1 6 10 -5 21 -22 11 -18 25 -33 30 -33 6 0 9 -4 6
-9 -7 -11 19 -33 28 -23 4 4 6 3 4 -3 -4 -14 39 -85 52 -85 6 0 9 -4 6 -9 -3
-4 6 -18 19 -31 13 -13 22 -26 20 -31 -3 -4 3 -14 13 -21 11 -7 22 -23 26 -35
4 -13 11 -23 15 -23 5 0 14 -13 21 -30 7 -16 16 -30 21 -30 5 0 9 -7 9 -15 0
-8 5 -15 11 -15 5 0 8 -4 5 -9 -4 -5 -3 -11 1 -13 11 -4 51 -62 63 -90 6 -13
19 -36 30 -53 11 -16 23 -36 26 -42 3 -7 11 -10 17 -6 6 3 7 1 3 -5 -8 -14 20
-72 36 -72 6 0 9 -3 5 -6 -3 -3 2 -20 12 -37 10 -18 31 -57 47 -87 16 -30 33
-58 37 -61 5 -3 8 -9 8 -13 -3 -19 0 -27 7 -22 5 3 9 -1 9 -9 0 -17 45 -109
56 -113 4 -2 7 -12 7 -23 0 -10 5 -19 12 -19 6 0 8 -3 5 -6 -4 -4 4 -28 17
-53 21 -41 47 -97 51 -111 11 -32 37 -79 47 -83 11 -4 11 -6 0 -6 -9 -1 -8 -7
4 -25 8 -14 17 -31 18 -38 2 -7 8 -26 14 -41 47 -113 64 -158 66 -167 3 -11
48 -126 57 -142 5 -10 9 -25 9 -33 0 -8 4 -15 8 -15 12 0 8 -36 -6 -53 -7 -7
-8 -17 -4 -21 4 -4 2 -6 -3 -4 -6 2 -32 -18 -59 -44 -27 -27 -45 -48 -41 -48
5 0 0 -9 -10 -20 -14 -15 -15 -20 -4 -20 9 0 10 -3 3 -8 -14 -9 -24 -62 -11
-62 5 0 4 -6 -2 -14 -7 -8 -8 -17 -4 -19 5 -3 10 -20 11 -39 2 -18 7 -34 12
-36 6 -2 10 -8 10 -14 0 -16 30 -41 53 -42 12 -1 29 6 38 16 9 10 18 16 20 14
2 -1 12 6 22 16 9 10 14 18 10 18 -4 0 8 11 27 25 19 14 31 25 27 25 -4 0 16
21 43 47 27 25 46 51 43 56 -3 6 -2 8 3 4 10 -6 39 12 44 28 2 6 18 23 37 39
18 16 30 33 27 37 -3 5 7 11 21 15 17 4 24 11 21 20 -3 8 -1 14 5 14 20 0 126
116 124 135 -1 18 -27 106 -42 145 -4 8 -7 17 -7 20 -1 3 -5 11 -9 18 -5 6 -5
17 -2 22 3 6 1 10 -5 10 -6 0 -9 4 -5 9 3 5 1 12 -5 16 -6 4 -8 10 -5 15 3 5
1 11 -5 15 -6 4 -8 10 -5 15 3 5 1 11 -5 15 -5 3 -10 17 -10 30 0 13 -6 30
-13 37 -7 7 -13 20 -13 28 0 8 -7 31 -15 50 -9 19 -21 53 -28 75 -16 51 -23
70 -50 123 -11 24 -21 50 -21 58 0 8 -4 14 -8 14 -4 0 -8 9 -9 21 -1 11 -11
39 -21 62 -11 23 -26 58 -34 77 -75 172 -113 256 -121 261 -5 3 -9 10 -9 15 0
5 -4 18 -8 29 -4 11 -8 24 -8 29 0 5 -4 12 -9 15 -9 6 -36 63 -33 70 1 2 -2 7
-7 10 -4 3 -24 37 -43 75 -38 76 -93 176 -118 216 -9 14 -17 31 -18 38 -2 8
-10 22 -18 31 -9 10 -16 22 -16 27 0 6 -8 19 -17 30 -10 11 -29 41 -43 67 -13
26 -28 47 -33 47 -4 0 -5 5 -2 10 3 6 -1 13 -9 16 -9 3 -16 11 -16 18 0 11
-45 83 -80 126 -11 14 -20 31 -20 38 0 6 -4 12 -8 12 -5 0 -15 11 -22 25 -7
13 -17 22 -22 19 -5 -3 -8 -2 -7 3 4 25 -3 42 -21 48 -11 3 -20 15 -20 26 0
10 -5 19 -11 19 -5 0 -7 5 -4 10 3 6 0 10 -7 10 -7 0 -20 15 -29 33 -9 17 -22
31 -29 29 -6 -1 -9 2 -5 7 3 6 -3 19 -15 31 -11 11 -20 22 -20 25 0 5 -31 44
-60 75 -8 8 -27 31 -41 50 -15 19 -41 50 -58 68 -17 17 -29 32 -27 32 2 0 -23
27 -55 60 -32 33 -56 60 -53 60 3 0 -9 12 -28 28 -18 15 -35 31 -37 35 -7 16
-63 62 -73 59 -5 -1 -7 1 -4 6 6 10 -70 83 -78 74 -3 -3 -6 2 -6 11 0 10 -3
17 -8 17 -4 0 -21 12 -38 28 -16 15 -45 38 -63 52 -18 14 -46 38 -62 53 -16
16 -33 26 -39 22 -5 -3 -10 0 -10 8 0 7 -12 19 -26 25 -15 7 -22 17 -18 24 4
6 3 8 -4 4 -6 -3 -17 1 -25 9 -9 8 -20 15 -25 15 -6 0 -12 7 -16 15 -3 8 -9
14 -13 13 -4 -2 -18 7 -31 20 -12 12 -27 20 -32 17 -6 -4 -13 1 -16 9 -3 9
-10 13 -15 10 -5 -3 -9 0 -9 5 0 6 -7 11 -15 11 -8 0 -15 4 -15 9 0 5 -17 17
-37 26 -21 10 -45 23 -53 30 -8 8 -22 15 -30 17 -8 2 -17 6 -20 10 -3 3 -12 8
-20 10 -8 2 -21 9 -28 16 -8 7 -18 10 -23 7 -5 -4 -9 1 -9 9 0 10 -6 13 -15
10 -8 -4 -17 1 -21 9 -3 9 -12 13 -20 10 -8 -3 -14 -1 -14 4 0 5 -10 9 -22 10
-11 1 -24 7 -28 13 -3 6 -16 12 -28 15 -11 2 -29 8 -40 14 -11 6 -22 7 -26 4
-3 -3 -6 1 -6 11 0 9 -4 15 -8 12 -12 -7 -82 16 -76 25 2 4 -5 6 -16 4 -11 -2
-20 0 -20 5 0 5 -6 7 -14 4 -8 -3 -17 -1 -21 5 -9 16 -38 14 -30 -1 4 -7 -2
-3 -12 10 -15 18 -21 20 -32 10 -11 -10 -12 -10 -7 0 5 8 -1 12 -18 12 -14 0
-26 4 -26 8 0 4 -10 8 -22 9 -13 1 -34 4 -48 8 -14 4 -32 8 -40 9 -9 1 -21 5
-28 10 -7 4 -12 2 -12 -6 0 -10 -2 -10 -9 0 -4 8 -11 13 -15 13 -3 -1 -7 0 -8
0 -3 1 -38 4 -96 8 -7 1 -10 5 -7 11 4 7 -3 7 -19 0 -18 -7 -26 -6 -26 1 0 8
-4 8 -14 0 -10 -9 -16 -9 -21 -1 -4 6 -13 9 -21 6 -7 -3 -16 -1 -20 5 -3 6
-12 3 -21 -8 -8 -10 -12 -13 -9 -7 8 16 -9 20 -81 19 -38 0 -63 3 -63 10 0 6
-3 7 -8 0 -9 -13 -95 -17 -87 -5 4 6 4 10 1 10 -3 0 -7 -4 -11 -10z m0 -506
l0 -179 -40 -3 c-22 -1 -59 -3 -82 -4 -24 -1 -43 -5 -43 -9 0 -4 -11 -6 -25
-3 -14 2 -25 0 -25 -5 0 -19 -45 6 -45 25 -1 11 -5 25 -9 33 -7 10 -5 12 4 6
9 -6 11 -4 6 4 -8 13 -17 119 -20 226 -1 47 2 60 14 60 8 1 14 7 12 15 -2 10
0 11 11 2 13 -11 47 -10 67 3 6 3 10 0 10 -7 0 -10 2 -10 8 -1 4 6 20 10 35 9
15 -2 27 0 27 3 0 3 21 6 47 5 l48 0 0 -180z m255 176 c3 -1 21 -2 40 -2 19 0
39 -3 44 -5 7 -5 56 -11 113 -15 13 -1 13 -168 0 -168 -4 0 -3 -9 3 -20 6 -11
7 -20 3 -20 -4 0 -9 -30 -10 -67 -4 -91 -4 -93 -49 -83 -21 5 -42 7 -46 4 -4
-3 -8 -1 -8 5 0 6 -14 8 -32 6 -19 -2 -36 1 -40 8 -6 9 -8 9 -8 -1 0 -9 -5
-10 -19 -2 -14 7 -21 6 -25 -3 -5 -9 -7 -9 -12 0 -3 7 -11 10 -19 7 -10 -4
-12 0 -8 15 3 12 -1 29 -8 38 -8 9 -9 14 -3 10 12 -7 14 91 1 110 -4 6 -3 14
2 17 13 8 10 138 -3 155 -8 11 -8 13 2 7 6 -4 12 -3 12 3 0 8 50 8 70 1z
m-574 -163 c3 -56 6 -123 7 -149 0 -27 5 -48 10 -48 5 0 4 -6 -2 -13 -6 -8 -9
-16 -6 -18 2 -3 -7 -6 -20 -7 -54 -4 -60 -5 -70 -12 -5 -5 -38 -14 -72 -20
-35 -7 -63 -16 -63 -21 0 -4 -9 -6 -20 -4 -11 2 -20 0 -20 -4 0 -4 -6 -8 -12
-8 -7 0 -21 -4 -30 -8 -13 -5 -18 -2 -19 11 -2 27 -7 72 -13 119 -8 56 -17
144 -19 184 -2 36 4 40 78 56 11 3 22 10 24 16 2 8 6 7 12 -2 6 -10 9 -11 9
-1 0 6 11 12 25 12 14 0 25 4 25 8 0 5 14 8 30 7 17 -1 30 2 30 7 0 5 5 6 10
3 6 -3 10 -1 10 5 0 6 4 9 8 6 5 -3 22 -2 38 3 40 11 44 0 50 -122z m899 113
c5 9 10 9 14 1 4 -5 22 -12 41 -15 19 -2 47 -9 63 -15 15 -6 27 -7 27 -3 0 4
4 2 8 -5 4 -6 19 -13 32 -15 14 -2 34 -9 45 -15 11 -6 27 -9 36 -8 12 2 15 -4
12 -24 -3 -14 -6 -44 -9 -66 -2 -22 -6 -53 -9 -70 -2 -16 -7 -56 -11 -88 -3
-32 -7 -66 -9 -75 -2 -9 -4 -19 -4 -22 -2 -10 -51 -6 -51 4 0 5 -3 6 -6 3 -4
-3 -16 -1 -28 5 -11 7 -25 11 -29 10 -4 -1 -16 2 -26 7 -10 6 -33 13 -51 16
-18 3 -38 9 -44 12 -5 4 -25 8 -44 9 -18 1 -36 4 -39 7 -5 5 -7 95 -3 107 2 5
4 50 10 187 3 67 19 83 52 56 12 -11 18 -11 23 -3z m-1293 -142 c2 -51 6 -91
8 -98 5 -14 10 -50 14 -95 3 -27 5 -51 6 -52 2 -3 3 -46 1 -64 -1 -5 -5 -8
-10 -4 -5 3 -13 0 -16 -6 -4 -5 -13 -8 -21 -5 -8 3 -14 1 -14 -5 0 -6 -4 -7
-10 -4 -5 3 -10 1 -10 -4 0 -6 -5 -11 -11 -11 -15 0 -123 -52 -127 -61 -2 -4
-10 -5 -18 -2 -8 3 -14 0 -14 -7 0 -6 -4 -8 -10 -5 -5 3 -10 2 -10 -3 0 -13
-27 -23 -44 -16 -11 4 -13 12 -6 29 5 13 5 25 0 27 -4 2 -11 21 -14 43 -6 40
-10 64 -22 120 -3 17 -8 49 -11 73 -4 37 -3 42 16 42 11 0 25 8 30 18 6 9 11
13 11 7 0 -5 4 -5 8 2 4 6 16 13 27 15 11 1 28 12 38 23 10 11 15 13 11 6 -5
-9 5 -6 23 7 17 12 38 22 47 22 9 0 16 5 16 10 0 6 3 9 8 9 24 -4 42 2 36 13
-4 6 -3 9 2 6 5 -3 18 -2 29 3 33 13 35 11 37 -33z m1643 32 c4 -6 10 -8 15
-5 4 3 13 -2 20 -10 7 -8 16 -13 20 -10 5 3 11 1 15 -5 4 -6 10 -8 15 -5 4 3
13 -2 20 -10 7 -8 21 -15 31 -15 11 0 19 -4 19 -8 0 -5 7 -9 15 -10 8 -1 22
-3 30 -4 8 -1 12 -5 9 -10 -3 -4 2 -8 10 -8 9 0 16 -4 16 -10 0 -5 9 -10 20
-10 11 0 20 -5 20 -11 0 -5 4 -8 9 -4 17 10 29 -26 20 -59 -4 -17 -10 -47 -13
-66 -3 -19 -10 -53 -16 -75 -5 -22 -9 -40 -8 -40 0 0 -3 -26 -7 -57 -7 -54 -8
-56 -30 -48 -13 5 -26 6 -31 2 -4 -4 -4 -1 0 6 4 7 1 12 -8 12 -9 0 -16 5 -16
12 0 6 -3 9 -6 5 -3 -3 -22 3 -42 13 -19 11 -40 16 -45 13 -6 -3 -7 -1 -3 5 6
11 -12 17 -36 13 -5 0 -8 3 -8 8 0 10 -59 35 -77 32 -13 -2 -36 33 -27 41 2 3
6 27 9 54 2 27 7 72 11 99 4 28 8 69 8 92 1 24 4 43 9 43 4 0 6 3 6 8 -5 29
13 44 26 22z m-2023 -212 c1 -18 2 -41 1 -50 0 -10 4 -18 9 -18 5 0 8 -6 7
-12 -5 -39 2 -69 14 -62 9 6 9 4 -1 -8 -7 -9 -9 -19 -5 -21 5 -3 10 -23 11
-43 2 -21 7 -43 13 -50 7 -8 6 -14 -1 -19 -6 -3 -8 -10 -6 -14 3 -4 -7 -14
-22 -22 -15 -8 -29 -16 -32 -19 -6 -6 -46 -29 -82 -48 -16 -7 -28 -17 -28 -22
0 -5 -16 -17 -36 -26 -20 -9 -38 -23 -41 -31 -3 -7 -9 -11 -13 -8 -5 3 -15 -4
-23 -16 -15 -20 -16 -20 -25 -2 -5 10 -13 36 -17 58 -4 22 -10 44 -13 50 -6
10 -7 15 -16 70 -2 17 -9 46 -15 65 -15 48 -14 80 3 80 7 0 30 15 50 34 20 19
36 32 36 28 0 -4 7 1 14 11 8 10 18 18 23 18 4 -1 22 9 38 21 17 13 33 22 38
20 4 -1 7 3 7 8 0 6 7 10 15 10 8 0 15 7 15 15 0 9 6 12 15 9 8 -4 15 -1 15 6
0 6 4 9 9 5 5 -3 12 -1 16 5 12 20 25 9 27 -22z m2398 21 c0 -5 5 -7 10 -4 6
3 10 1 10 -5 0 -6 5 -8 10 -5 6 3 10 2 10 -3 0 -5 10 -14 23 -21 12 -6 36 -20
52 -30 17 -10 34 -16 39 -13 5 3 6 0 2 -6 -7 -12 27 -35 38 -25 3 3 6 -1 6
-11 0 -9 4 -15 9 -12 5 4 11 3 13 -2 5 -13 85 -72 90 -67 3 3 5 -2 5 -10 0 -8
-4 -12 -8 -10 -4 3 -9 -8 -12 -23 -3 -15 -7 -36 -11 -47 -3 -11 -17 -68 -31
-127 -15 -60 -31 -108 -36 -108 -5 0 -9 5 -9 11 0 5 -4 8 -8 5 -5 -3 -20 6
-35 20 -14 13 -30 24 -35 24 -5 0 -17 9 -27 20 -10 11 -24 20 -32 20 -7 0 -13
4 -13 9 0 5 -9 13 -20 16 -11 4 -32 19 -47 33 -14 15 -22 21 -19 15 11 -19 -1
-16 -30 9 -20 18 -24 29 -20 53 3 16 8 48 11 70 7 48 12 72 20 105 4 14 8 41
10 60 2 19 5 36 6 38 1 1 3 7 4 12 1 6 3 12 4 15 2 10 21 5 21 -6z m408 -288
c12 -7 20 -16 17 -21 -4 -6 1 -7 11 -3 12 4 15 3 10 -5 -4 -7 -3 -12 2 -12 5
0 30 -20 56 -45 27 -25 53 -42 59 -38 5 3 7 1 3 -5 -3 -6 3 -17 14 -25 20 -14
22 -37 8 -77 -15 -41 -47 -140 -59 -182 -7 -27 -17 -48 -21 -48 -4 0 -8 -6 -8
-14 0 -8 -32 17 -71 54 -39 38 -80 72 -90 75 -11 4 -17 10 -14 14 2 4 -7 14
-20 21 -13 7 -26 19 -29 26 -3 7 9 68 25 136 39 159 37 153 39 156 3 3 7 19 9
35 1 7 9 4 19 -9 10 -12 28 -26 40 -33z m-3180 32 c0 -5 1 -15 5 -23 6 -17 47
-186 51 -212 1 -10 5 -21 9 -24 13 -14 7 -36 -18 -66 -14 -16 -25 -26 -25 -22
0 4 -13 -7 -30 -24 -16 -18 -30 -29 -30 -25 0 3 -13 -8 -30 -25 -16 -18 -30
-29 -30 -26 0 4 -13 -10 -30 -30 l-29 -38 -16 37 c-8 21 -15 46 -15 56 0 11
-5 19 -12 19 -6 0 -8 3 -5 7 4 3 2 12 -4 20 -9 10 -8 13 2 13 11 0 11 2 1 8
-7 5 -14 17 -16 28 -2 10 -10 33 -16 49 -25 62 -22 70 52 137 39 35 74 65 79
66 5 2 7 8 3 13 -3 5 2 9 11 9 10 0 13 5 9 12 -5 7 -2 9 7 6 8 -3 23 5 34 18
19 22 47 33 43 17z m-405 -403 c-3 -11 -1 -20 4 -20 5 0 9 -8 10 -17 1 -10 7
-31 14 -48 12 -30 13 -34 23 -70 36 -129 35 -117 9 -141 -15 -14 -22 -28 -17
-35 4 -7 3 -9 -4 -5 -11 7 -73 -49 -64 -59 3 -3 -2 -5 -12 -5 -9 0 -14 -4 -11
-10 3 -5 -10 -24 -30 -42 -19 -18 -35 -39 -35 -45 0 -25 -25 -12 -40 20 -8 17
-13 35 -12 40 1 4 -3 7 -9 7 -5 0 -8 4 -4 9 3 5 1 12 -5 16 -6 4 -8 10 -5 15
3 5 -4 14 -16 20 -14 8 -18 15 -11 22 6 6 4 20 -6 41 -9 18 -18 39 -19 47 -4
20 18 61 29 54 4 -3 8 2 8 10 0 9 5 16 10 16 6 0 10 4 10 10 0 9 27 41 93 110
21 22 35 40 31 40 -4 0 5 11 20 25 30 28 47 26 39 -5z m3980 -14 c17 -19 46
-51 62 -72 27 -33 54 -64 87 -104 7 -8 12 -17 11 -20 -1 -3 8 -10 20 -17 22
-12 25 -21 10 -32 -4 -3 -17 -31 -27 -61 -10 -30 -23 -61 -29 -67 -5 -7 -7
-20 -3 -28 3 -9 2 -14 -3 -10 -5 3 -12 -8 -16 -25 -4 -16 -11 -30 -17 -30 -6
0 -8 -6 -5 -13 3 -8 2 -20 -3 -27 -6 -9 -13 -7 -29 9 -11 11 -21 24 -21 27 0
3 -14 19 -31 35 -17 16 -29 29 -25 29 3 0 -7 13 -22 28 -15 15 -42 47 -61 69
-19 23 -38 40 -42 37 -4 -2 -11 1 -15 7 -4 7 -3 9 4 5 6 -4 17 14 27 46 9 29
19 60 22 68 10 25 15 44 16 63 1 9 4 17 8 17 4 0 10 17 14 38 6 33 21 62 31
62 3 0 19 -15 37 -34z m280 -348 c-2 -4 6 -13 17 -21 11 -7 17 -17 13 -20 -3
-4 -1 -7 5 -7 7 0 12 -6 12 -14 0 -8 7 -16 15 -20 8 -3 15 -12 15 -19 0 -8 7
-20 15 -27 9 -7 23 -28 31 -46 9 -19 20 -34 25 -34 5 0 9 -6 9 -14 0 -7 6 -19
14 -25 19 -16 57 -89 48 -93 -9 -4 -82 -152 -82 -166 0 -7 -4 -12 -10 -12 -5
0 -10 -7 -10 -15 0 -8 -4 -15 -10 -15 -6 0 -9 -3 -9 -7 4 -27 -3 -31 -21 -13
-11 11 -20 23 -20 26 0 12 -63 104 -72 104 -4 0 -8 6 -8 13 0 12 -10 27 -50
75 -6 6 -8 12 -4 12 3 0 -4 9 -17 20 -13 10 -20 19 -16 20 4 0 -4 12 -18 28
-37 39 -39 56 -15 109 12 27 23 53 24 58 1 6 7 20 14 31 6 12 8 24 5 28 -3 3
-1 6 5 6 7 0 12 9 12 19 0 11 5 23 11 26 5 4 8 12 6 18 -2 6 1 17 7 23 8 9 17
6 37 -14 14 -15 24 -30 22 -34z m-4526 22 c3 -16 10 -30 16 -30 6 0 8 -3 5 -6
-5 -5 8 -40 52 -139 19 -45 19 -66 -3 -88 -12 -12 -22 -26 -22 -30 0 -4 -5
-11 -11 -15 -6 -4 -25 -28 -41 -54 -17 -26 -33 -45 -37 -41 -5 6 -8 -5 -5 -24
0 -3 -6 -10 -15 -15 -9 -5 -16 -15 -16 -21 0 -7 -9 -19 -19 -26 -11 -8 -17
-21 -13 -29 3 -10 1 -13 -6 -8 -7 4 -12 2 -12 -4 0 -7 -9 -23 -19 -36 l-19
-24 -14 23 c-8 12 -36 66 -61 120 -50 103 -51 112 -9 160 8 9 12 17 8 17 -4 0
-2 6 4 13 33 40 80 107 74 107 -5 0 1 7 12 15 10 8 16 15 12 15 -5 0 0 8 10
18 9 10 24 29 32 42 8 12 21 28 28 36 6 7 12 16 12 21 0 13 22 33 37 33 8 0
16 -13 20 -30z m4814 -450 c5 0 9 -7 9 -16 0 -8 4 -12 10 -9 6 4 7 -1 3 -10
-3 -10 -1 -20 4 -24 5 -3 29 -40 53 -81 23 -41 50 -84 59 -94 9 -12 11 -16 3
-12 -11 7 -11 4 0 -13 7 -12 16 -21 20 -21 5 0 8 -9 8 -19 0 -11 3 -21 8 -23
4 -1 14 -19 23 -38 15 -33 11 -60 -12 -80 -3 -3 -14 -21 -25 -40 -10 -19 -26
-44 -36 -55 -9 -11 -18 -24 -19 -30 -2 -13 -38 -59 -42 -54 -1 2 -10 21 -20
42 -9 20 -21 37 -27 37 -5 0 -9 3 -8 8 4 12 -24 72 -33 72 -5 0 -9 9 -9 20 0
11 -5 20 -11 20 -5 0 -7 5 -4 10 3 6 1 10 -5 10 -6 0 -8 5 -5 10 3 6 1 10 -4
10 -6 0 -11 6 -11 14 0 8 -3 16 -7 18 -10 4 -42 57 -50 81 -3 9 -9 17 -14 17
-5 0 -9 7 -9 15 0 8 -5 15 -10 15 -9 0 6 37 21 50 3 3 11 21 19 40 7 19 20 42
27 52 8 9 15 22 17 30 1 7 13 32 26 56 24 43 25 43 33 18 5 -14 13 -26 18 -26z
m274 -499 c8 -16 11 -31 8 -35 -4 -3 -1 -6 6 -6 7 0 9 -4 6 -10 -3 -5 -2 -10
2 -10 5 0 15 -17 22 -37 8 -21 20 -46 29 -55 8 -10 12 -18 9 -18 -10 0 45
-114 61 -127 10 -8 11 -13 4 -13 -9 0 -9 -5 0 -22 7 -13 18 -26 23 -30 6 -4 6
-8 2 -8 -4 0 -3 -9 3 -21 18 -33 20 -60 5 -66 -8 -3 -15 -9 -15 -14 0 -10 -5
-18 -45 -63 -13 -16 -22 -33 -18 -39 3 -6 1 -7 -5 -3 -7 4 -12 3 -12 -2 0 -4
-9 -18 -21 -30 -11 -12 -17 -27 -13 -34 4 -6 3 -8 -3 -5 -6 4 -21 31 -33 62
-13 32 -27 52 -33 48 -6 -3 -7 -1 -3 5 4 7 -2 33 -13 58 -12 25 -18 51 -14 57
3 5 2 7 -3 4 -9 -5 -34 38 -33 57 0 5 -4 12 -11 16 -6 4 -13 13 -14 21 -5 24
-46 108 -56 114 -11 7 37 105 52 105 5 0 6 5 3 10 -3 6 -2 10 2 10 5 0 17 17
28 38 11 20 26 43 32 50 7 7 13 18 13 23 0 17 19 0 35 -30z m235 -541 c0 -11
5 -20 11 -20 5 0 8 -4 5 -8 -3 -5 1 -19 7 -33 7 -13 23 -53 36 -89 12 -36 28
-78 36 -95 7 -16 21 -56 31 -88 16 -51 16 -60 4 -68 -8 -5 -11 -9 -7 -9 5 0
-9 -15 -30 -32 -21 -18 -40 -36 -41 -40 -1 -5 -5 -8 -9 -9 -5 0 -13 -10 -20
-22 -7 -12 -12 -18 -13 -13 0 6 -6 1 -14 -9 -13 -18 -14 -17 -30 13 -9 17 -17
35 -17 39 -2 12 -6 26 -15 48 -4 11 -8 25 -10 30 -6 23 -29 80 -34 85 -3 3 -7
14 -8 25 -2 11 -9 23 -15 27 -7 4 -9 8 -5 8 4 0 -1 20 -12 44 l-19 45 31 43
c17 24 36 46 42 50 6 4 7 8 2 8 -5 0 3 11 18 25 15 14 25 25 22 25 -3 0 2 9
11 20 10 11 23 20 30 20 7 0 13 -9 13 -20z"/>
<path d="M4940 7344 c0 -6 -10 -10 -21 -10 -16 1 -25 -8 -35 -36 -7 -21 -10
-38 -6 -38 7 0 7 -27 -1 -143 -1 -20 1 -37 5 -37 4 0 3 -11 -2 -25 -5 -14 -6
-25 -1 -25 5 0 7 -8 5 -17 -7 -32 -9 -173 -2 -173 4 0 3 -12 -1 -27 -4 -16 -5
-39 -1 -53 4 -14 3 -35 -1 -47 -5 -13 -5 -23 0 -23 5 0 5 -16 1 -35 -4 -19 -4
-37 0 -40 8 -5 5 -48 -5 -64 -3 -6 -2 -11 3 -11 6 0 7 -14 2 -34 -4 -19 -5
-37 -2 -40 8 -9 9 -49 1 -72 -4 -11 -4 -27 1 -34 4 -7 4 -26 0 -41 -5 -16 -5
-29 -2 -29 4 0 6 -19 5 -42 -5 -75 -4 -259 2 -268 3 -5 1 -11 -5 -15 -6 -4 -8
-11 -5 -16 4 -5 2 -9 -4 -9 -5 0 -13 -10 -17 -22 -11 -32 -12 -148 -1 -148 4
0 6 -4 2 -9 -9 -16 27 -30 51 -21 15 6 24 5 27 -3 3 -9 8 -9 20 2 10 7 17 9
17 4 0 -11 29 -11 48 1 7 4 12 2 12 -6 0 -10 2 -10 9 1 7 11 9 11 13 0 4 -12
7 -12 21 0 10 7 17 9 17 5 0 -10 68 -10 77 0 4 3 12 1 20 -5 10 -9 13 -8 13 2
0 12 2 12 9 0 6 -10 13 -11 29 -2 11 6 23 7 26 2 6 -9 48 -7 65 3 5 4 13 1 17
-5 4 -8 9 -7 15 2 6 10 9 11 9 2 0 -23 20 -14 38 17 27 43 22 153 -7 176 -11
8 -14 41 -15 135 -1 68 -5 130 -10 138 -6 9 -5 12 1 8 7 -5 10 51 9 170 0 148
2 177 14 181 8 3 12 1 8 -3 -4 -5 -3 -14 3 -21 7 -9 11 -94 11 -249 0 -130 3
-248 7 -262 4 -14 16 -32 27 -40 18 -11 23 -11 40 4 10 10 21 25 24 33 3 8 6
152 8 320 3 300 7 331 36 313 5 -4 7 1 3 11 -4 9 -3 15 2 12 31 -20 38 124 9
180 -15 28 -20 77 -18 172 1 36 -29 142 -41 142 -4 0 -9 9 -12 20 -7 28 -26
25 -22 -2 4 -28 29 -95 38 -104 10 -10 9 -52 -2 -58 -5 -3 -15 -30 -21 -58 -7
-29 -16 -60 -20 -67 -5 -8 -4 -25 1 -38 5 -13 4 -25 -1 -28 -7 -4 -7 -13 0
-24 5 -10 7 -21 4 -24 -11 -10 -10 -67 0 -67 7 0 8 -3 1 -8 -16 -12 -12 -57 5
-56 11 1 15 -10 15 -43 0 -23 -4 -43 -8 -43 -5 0 -5 -4 -2 -10 7 -11 8 -447 2
-494 -5 -33 -28 -52 -39 -32 -4 7 -8 121 -8 252 -1 167 -5 243 -13 253 -9 12
-9 13 1 7 7 -4 4 7 -7 26 -10 18 -24 32 -30 31 -14 -4 -13 -39 -15 352 -1 245
-5 346 -13 360 -7 11 -13 16 -13 10 0 -5 -5 -3 -10 5 -7 11 -10 11 -10 2 0
-10 -5 -10 -20 -2 -11 6 -20 7 -20 3 0 -12 -64 -10 -72 2 -5 6 -8 6 -8 -2 0
-8 -9 -9 -30 -3 -16 5 -30 6 -30 2 0 -9 -85 -6 -99 3 -6 3 -11 2 -11 -3 0 -5
-7 -9 -15 -9 -8 0 -15 4 -15 8 0 4 -13 4 -29 -1 -19 -5 -33 -4 -40 3 -7 7 -11
7 -11 1z m174 -105 c6 9 11 9 22 0 8 -6 14 -7 14 -2 0 5 7 10 15 10 8 0 15 -4
15 -8 0 -5 11 -4 25 1 13 5 27 6 29 1 3 -5 16 -6 29 -4 48 9 54 -12 53 -181
-1 -86 3 -156 7 -156 5 0 5 -5 1 -11 -10 -17 -11 -51 -2 -76 4 -13 4 -23 -1
-23 -5 0 -8 -10 -7 -23 3 -26 9 -25 -136 -29 -59 -2 -104 0 -101 5 3 5 -5 4
-17 -3 -15 -8 -25 -9 -32 -2 -7 7 -19 7 -35 1 -16 -6 -22 -5 -18 1 3 6 1 10
-4 10 -6 0 -10 3 -10 8 1 4 0 9 -1 12 -2 3 -4 103 -5 223 -1 187 1 219 14 231
22 18 49 27 55 17 8 -12 56 -1 56 12 0 6 6 3 13 -8 10 -13 16 -15 21 -6z"/>
<path d="M2204 6568 c-4 -13 -10 -25 -13 -28 -3 -3 -17 -30 -31 -60 -13 -30
-31 -66 -39 -79 -9 -13 -16 -31 -17 -39 -2 -8 -6 -18 -11 -21 -4 -3 -9 -11
-10 -16 -1 -6 -20 -50 -42 -98 -23 -49 -41 -94 -41 -101 0 -8 -6 -19 -14 -25
-8 -7 -17 -27 -20 -47 -5 -21 -11 -32 -18 -28 -6 4 -8 3 -5 -3 4 -6 -1 -28
-10 -49 -9 -22 -17 -41 -18 -44 -1 -3 -5 -13 -8 -22 -9 -23 -16 -46 -18 -56 0
-4 -7 -18 -14 -32 -23 -45 -77 -192 -146 -400 -23 -69 -44 -129 -47 -135 -3
-5 -7 -18 -8 -30 -1 -11 -4 -26 -6 -32 -3 -13 179 -203 194 -203 4 0 8 -8 8
-17 0 -9 2 -14 5 -11 3 3 61 -50 129 -117 68 -68 134 -130 147 -139 29 -18 66
-17 74 2 3 7 9 11 13 8 5 -3 9 0 9 7 0 7 8 30 18 52 10 22 17 45 15 50 -1 6
-3 30 -5 55 -5 68 -19 95 -90 165 -66 66 -71 78 -47 123 7 12 11 22 8 22 -3 0
6 25 19 55 14 30 22 55 18 55 -3 0 1 8 10 18 10 10 15 21 12 24 -3 3 5 30 19
59 13 30 36 87 52 127 15 39 30 72 34 72 4 0 7 6 7 13 0 6 14 42 31 79 18 36
32 69 32 72 0 14 134 275 139 272 3 -2 6 8 6 23 0 15 -16 54 -37 87 -20 32
-36 63 -36 68 0 5 -4 12 -9 15 -14 9 -75 101 -67 101 4 0 -3 8 -14 19 -12 10
-19 21 -15 25 3 3 1 6 -5 6 -7 0 -12 5 -12 11 0 6 -13 30 -30 54 -16 24 -30
48 -30 54 0 6 -4 11 -8 11 -5 0 -14 11 -20 25 -14 31 -28 32 -38 3z m151 -308
c-3 -5 -1 -10 3 -12 17 -6 82 -119 76 -130 -4 -6 -3 -8 4 -4 24 15 19 -14 -14
-80 -19 -38 -67 -140 -106 -226 l-70 -157 -56 72 c-31 40 -61 75 -67 79 -6 5
-6 8 0 8 6 0 4 4 -4 9 -15 10 1 57 76 221 22 47 45 100 53 118 7 17 16 32 20
32 4 0 11 7 14 16 4 10 2 13 -7 8 -13 -9 12 26 28 38 6 4 6 8 2 8 -4 0 -3 9 3
21 11 20 13 20 31 3 10 -9 16 -20 14 -24z m-265 -519 c0 -5 13 -23 30 -41 16
-18 27 -37 23 -44 -3 -6 -3 -8 2 -4 4 4 22 -12 40 -34 l32 -42 -48 -118 c-26
-65 -46 -118 -44 -118 2 0 -5 -21 -16 -46 -11 -25 -23 -57 -25 -72 -3 -15 -7
-28 -9 -30 -2 -2 -37 30 -79 71 -83 81 -81 77 -46 162 11 26 22 59 20 63 0 1
6 15 14 31 9 16 12 31 9 35 -4 3 -1 6 5 6 7 0 11 3 10 8 -4 12 65 182 74 182
4 0 8 -4 8 -9z"/>
<path d="M6987 5328 c-12 -13 -46 -59 -74 -103 -29 -44 -57 -85 -62 -92 -6 -7
-16 -24 -23 -38 -6 -14 -16 -25 -21 -25 -6 0 -7 -3 -4 -6 4 -4 -7 -24 -23 -44
-17 -21 -30 -40 -30 -43 0 -9 -132 -211 -142 -218 -6 -3 -9 -10 -9 -15 1 -5
-5 -16 -12 -24 -7 -8 -30 -44 -52 -80 -21 -36 -45 -71 -51 -78 -7 -6 -16 -21
-19 -32 -3 -11 -11 -20 -16 -20 -6 0 -7 -5 -4 -10 3 -6 -1 -13 -9 -16 -9 -3
-14 -9 -11 -13 2 -4 -7 -19 -21 -34 -13 -15 -25 -30 -27 -34 -1 -5 -6 -7 -10
-5 -5 1 -6 -1 -3 -6 5 -9 -68 -132 -98 -164 -9 -10 -14 -18 -11 -18 3 0 -12
-26 -33 -57 -22 -32 -47 -72 -57 -90 -10 -18 -23 -29 -29 -26 -6 3 -8 3 -4 -2
9 -10 -19 -65 -34 -65 -6 0 -9 -3 -5 -6 3 -3 -19 -42 -49 -87 -30 -44 -54 -84
-54 -89 0 -5 -5 -6 -10 -3 -6 4 -9 3 -8 -2 4 -16 -14 -53 -23 -47 -5 3 -9 2
-8 -3 4 -12 -23 -63 -33 -63 -4 0 -8 -7 -8 -15 0 -8 -4 -15 -10 -15 -5 0 -10
-5 -10 -10 0 -10 -67 -120 -88 -145 -4 -5 -25 -38 -46 -72 -22 -35 -43 -63
-49 -63 -6 0 -8 -3 -4 -6 6 -7 -48 -93 -67 -106 -6 -4 -8 -8 -4 -8 6 0 -19
-42 -72 -120 -18 -27 -125 -194 -155 -242 -17 -27 -32 -48 -35 -48 -3 0 -18
11 -33 25 -15 14 -27 22 -27 18 0 -4 -7 1 -15 11 -8 11 -15 16 -15 12 0 -5 -6
-4 -12 1 -43 34 -180 49 -235 26 -18 -7 -36 -14 -40 -14 -5 -1 -19 -6 -33 -11
-14 -5 -26 -9 -28 -8 -1 0 -13 -11 -26 -25 -13 -14 -27 -25 -31 -25 -10 0 -96
-90 -87 -90 4 0 -1 -5 -11 -11 -9 -6 -15 -14 -12 -19 3 -4 -2 -11 -11 -14 -9
-4 -14 -13 -10 -22 3 -8 2 -13 -2 -10 -5 3 -25 -27 -44 -67 -36 -72 -52 -111
-46 -113 2 0 -2 -7 -8 -15 -6 -8 -15 -27 -19 -44 -10 -35 -10 -36 -18 -55 -4
-8 -9 -27 -12 -42 -3 -16 -7 -38 -10 -50 -3 -13 -7 -33 -9 -46 -3 -12 -8 -27
-11 -32 -3 -6 -1 -10 6 -10 9 0 9 -4 -1 -15 -6 -8 -9 -19 -6 -24 4 -5 2 -12
-3 -16 -7 -3 -7 -15 -1 -30 6 -15 6 -27 0 -30 -13 -8 -15 -158 -5 -300 4 -44
7 -90 8 -102 0 -13 3 -23 7 -23 3 0 5 -18 6 -39 1 -21 5 -47 9 -57 4 -11 9
-32 11 -48 3 -17 8 -32 12 -35 4 -4 9 -19 10 -34 6 -45 81 -217 95 -217 5 0 6
-4 3 -8 -3 -5 4 -19 15 -30 11 -12 17 -22 14 -22 -4 0 8 -19 26 -42 37 -47
119 -132 119 -123 0 3 10 -3 22 -14 11 -11 24 -18 28 -16 5 3 11 -2 14 -10 3
-8 9 -14 13 -14 9 2 40 -8 67 -22 14 -8 16 -8 10 3 -6 10 -5 11 7 2 36 -30
207 6 262 54 9 8 17 12 17 9 0 -9 101 95 120 123 8 12 21 29 28 36 7 8 10 14
5 14 -4 0 -2 4 5 9 7 4 14 17 15 29 0 11 6 20 12 19 5 -1 9 6 9 16 -1 9 2 17
6 17 9 0 64 121 61 134 -1 4 2 13 7 20 4 6 8 18 7 26 0 8 3 17 7 20 4 3 9 21
10 40 2 19 7 38 11 41 5 3 10 21 12 40 2 19 4 34 5 34 2 0 4 9 6 20 1 11 6 38
9 60 8 50 14 387 8 398 -3 5 -7 30 -8 55 -4 49 -7 65 -30 167 -7 33 -10 62 -7
65 4 3 23 37 42 75 19 39 39 73 43 76 5 3 9 10 9 15 1 20 18 54 28 54 5 0 9 3
8 8 -3 13 14 62 21 62 4 0 13 16 20 35 7 21 17 33 23 29 7 -4 8 -2 4 4 -7 12
29 92 46 103 5 3 9 9 9 13 -2 13 34 86 42 86 4 0 6 4 3 9 -3 5 3 19 13 32 10
13 20 29 21 34 9 35 86 173 93 168 6 -3 7 -1 4 4 -4 6 24 70 62 142 38 72 72
140 76 151 4 11 11 17 17 14 6 -4 8 -3 5 3 -7 11 39 114 55 124 5 3 9 8 8 10
-2 5 32 81 40 89 3 3 41 77 85 165 44 88 83 162 88 163 4 2 5 8 1 13 -3 5 0 9
5 9 6 0 10 3 9 8 -2 7 57 125 156 312 25 47 57 111 72 142 15 32 31 55 37 51
6 -3 7 -1 3 5 -4 7 13 49 37 95 69 127 111 211 113 226 2 8 7 17 12 20 5 3 17
25 27 49 11 23 23 42 28 42 4 0 6 4 2 9 -3 5 -1 12 5 16 6 4 8 11 5 16 -4 5
-2 9 3 9 9 0 57 100 54 113 -1 4 2 7 6 7 8 0 14 27 14 75 1 63 -2 86 -12 80
-5 -3 -10 -1 -10 4 0 19 -38 12 -63 -11z"/>
<path d="M1573 4016 c-4 -6 -7 -955 -4 -1021 1 -12 421 -14 421 -2 0 5 3 6 8
4 4 -3 7 50 7 118 0 68 -4 121 -9 118 -7 -5 -197 -7 -267 -4 -13 1 -15 15 -15
85 l0 84 101 0 c130 0 125 0 119 17 -4 8 -1 15 6 15 6 0 8 5 3 13 -11 17 -12
107 -1 107 5 0 6 6 1 13 -13 20 -13 41 0 49 15 10 11 10 -123 12 l-105 1 -1
78 c-1 49 3 77 10 78 6 1 63 3 126 4 63 1 122 3 130 4 13 1 15 19 14 114 -1
61 -2 114 -3 117 -2 9 -413 5 -418 -4z"/>
<path d="M8322 4026 c4 -5 3 -19 -2 -31 -6 -16 -5 -25 2 -27 8 -3 7 -10 -1
-26 -6 -12 -8 -22 -3 -22 4 0 8 -9 8 -20 0 -11 -3 -20 -6 -20 -8 0 -3 -67 5
-80 3 -6 1 -10 -6 -10 -10 0 -10 -3 -1 -12 7 -7 8 -17 2 -29 -7 -11 -7 -20 0
-24 7 -4 7 -13 0 -26 -6 -10 -7 -19 -2 -19 4 0 8 -9 8 -20 0 -11 -3 -20 -6
-20 -8 0 -3 -67 5 -80 3 -6 1 -10 -6 -10 -10 0 -10 -3 -1 -12 7 -7 8 -17 2
-29 -7 -11 -7 -20 0 -24 7 -4 7 -13 0 -26 -6 -10 -7 -19 -2 -19 4 0 8 -9 8
-20 0 -11 -3 -20 -7 -20 -4 0 -3 -16 1 -35 4 -19 5 -35 1 -35 -3 0 -6 -13 -6
-30 0 -16 4 -30 8 -30 4 0 3 -8 -2 -19 -6 -10 -7 -21 -4 -25 10 -10 10 -56 0
-56 -5 0 -4 -6 2 -14 7 -8 8 -17 3 -20 -9 -5 -8 -58 2 -74 3 -6 0 -13 -6 -15
-10 -4 -10 -6 0 -6 9 -1 10 -6 2 -20 -5 -11 -7 -22 -3 -24 20 -10 87 -6 101 5
10 8 13 9 9 1 -4 -6 -3 -14 3 -18 5 -3 10 -1 10 5 0 6 5 8 10 5 7 -4 10 30 11
97 0 57 0 110 0 118 0 8 -1 48 -3 88 -2 57 0 71 10 67 7 -3 22 0 32 5 13 7 21
7 25 0 4 -7 12 -7 23 -1 12 7 23 5 36 -7 11 -9 16 -12 13 -5 -5 8 4 11 30 10
l38 -2 5 68 c3 38 3 71 1 73 -3 3 -4 26 -3 52 2 30 0 42 -6 34 -5 -8 -13 -14
-17 -14 -4 0 -12 6 -16 14 -5 7 -9 9 -9 3 0 -11 -72 -11 -89 0 -6 3 -11 0 -11
-7 0 -10 -2 -10 -9 1 -6 9 -11 10 -15 3 -4 -6 -13 -9 -21 -5 -11 4 -15 22 -15
67 0 78 0 93 1 109 1 6 -2 21 -6 32 -5 15 -4 16 3 6 8 -11 39 -14 136 -14 70
0 129 3 133 6 8 9 7 212 -1 226 -4 6 -12 8 -18 5 -15 -10 -87 -11 -120 -3 -14
4 -29 5 -32 1 -9 -8 -212 -5 -228 4 -7 4 -10 4 -6 0z"/>
</g>
</svg>
